<mxfile host="65bd71144e">
    <diagram id="mc69BzW-jYdgBbmferOv" name="Page-1">
        <mxGraphModel dx="883" dy="455" grid="1" gridSize="10" guides="1" tooltips="1" connect="1" arrows="1" fold="1" page="1" pageScale="1" pageWidth="850" pageHeight="1100" math="0" shadow="0">
            <root>
                <mxCell id="0"/>
                <mxCell id="1" parent="0"/>
                <mxCell id="19" value="" style="rounded=1;whiteSpace=wrap;html=1;fontSize=12;strokeColor=#000000;fillColor=none;dashed=1;" vertex="1" parent="1">
                    <mxGeometry x="119" y="40" width="680" height="690" as="geometry"/>
                </mxCell>
                <mxCell id="2" value="&lt;font style=&quot;font-size: 18px&quot;&gt;APP.js&lt;/font&gt;" style="rounded=1;whiteSpace=wrap;html=1;align=center;fillColor=#fff2cc;strokeColor=#d6b656;" vertex="1" parent="1">
                    <mxGeometry x="389" y="30" width="160" height="60" as="geometry"/>
                </mxCell>
                <mxCell id="3" value="HEADING" style="rounded=1;whiteSpace=wrap;html=1;align=center;fillColor=#ffe6cc;strokeColor=#d79b00;" vertex="1" parent="1">
                    <mxGeometry x="140" y="168" width="110" height="40" as="geometry"/>
                </mxCell>
                <mxCell id="11" value="IPSUMTEXT" style="rounded=1;whiteSpace=wrap;html=1;align=center;fillColor=#ffe6cc;strokeColor=#d79b00;" vertex="1" parent="1">
                    <mxGeometry x="445" y="400" width="110" height="40" as="geometry"/>
                </mxCell>
                <mxCell id="13" value="&lt;font style=&quot;font-size: 12px&quot;&gt;STATE:&lt;/font&gt;" style="rounded=1;whiteSpace=wrap;html=1;fontSize=18;fillColor=#f5f5f5;strokeColor=default;fontColor=#333333;dashed=1;dashPattern=1 2;" vertex="1" parent="1">
                    <mxGeometry x="414" y="80" width="110" height="40" as="geometry"/>
                </mxCell>
                <mxCell id="15" value="&lt;div&gt;&lt;span style=&quot;font-size: 12px&quot;&gt;&lt;span style=&quot;white-space: pre&quot;&gt;&#9;&lt;/span&gt;STATE:&lt;/span&gt;&lt;/div&gt;&lt;font style=&quot;font-size: 12px&quot;&gt;&lt;div&gt;&lt;span&gt;- the ipsum text (fetched / in an array)&lt;/span&gt;&lt;/div&gt;&lt;div&gt;&lt;span&gt;- user keystrokes (styling)&lt;/span&gt;&lt;/div&gt;&lt;/font&gt;" style="rounded=1;whiteSpace=wrap;html=1;fontSize=18;fillColor=#f5f5f5;strokeColor=default;fontColor=#333333;dashed=1;dashPattern=1 2;align=left;" vertex="1" parent="1">
                    <mxGeometry x="400" y="432" width="210" height="72" as="geometry"/>
                </mxCell>
                <mxCell id="20" value="INPUT FIELD" style="rounded=1;whiteSpace=wrap;html=1;align=center;fillColor=#ffe6cc;strokeColor=#d79b00;" vertex="1" parent="1">
                    <mxGeometry x="650" y="168" width="110" height="40" as="geometry"/>
                </mxCell>
                <mxCell id="16" value="&lt;div style=&quot;text-align: left&quot;&gt;&lt;span style=&quot;font-size: 12px&quot;&gt;STATE:&lt;/span&gt;&lt;/div&gt;&lt;font style=&quot;font-size: 12px&quot;&gt;&lt;div style=&quot;text-align: left&quot;&gt;&lt;span&gt;- keystrokes (string)&lt;/span&gt;&lt;/div&gt;&lt;/font&gt;" style="rounded=1;whiteSpace=wrap;html=1;fontSize=18;fillColor=#f5f5f5;strokeColor=default;fontColor=#333333;dashed=1;dashPattern=1 2;" vertex="1" parent="1">
                    <mxGeometry x="640" y="198" width="130" height="42" as="geometry"/>
                </mxCell>
                <mxCell id="21" value="SPACE BUTTON" style="rounded=1;whiteSpace=wrap;html=1;align=center;fillColor=#ffe6cc;strokeColor=#d79b00;" vertex="1" parent="1">
                    <mxGeometry x="380" y="150" width="110" height="40" as="geometry"/>
                </mxCell>
                <mxCell id="22" value="&lt;div style=&quot;text-align: left&quot;&gt;&lt;span style=&quot;font-size: 12px&quot;&gt;STATE:&lt;/span&gt;&lt;/div&gt;&lt;span style=&quot;font-size: 12px&quot;&gt;&lt;div style=&quot;text-align: left&quot;&gt;&lt;span&gt;- keystroke (spacebar)&lt;/span&gt;&lt;/div&gt;&lt;/span&gt;" style="rounded=1;whiteSpace=wrap;html=1;fontSize=18;fillColor=#f5f5f5;strokeColor=default;fontColor=#333333;dashed=1;dashPattern=1 2;" vertex="1" parent="1">
                    <mxGeometry x="370" y="180" width="150" height="45" as="geometry"/>
                </mxCell>
                <mxCell id="23" value="WPM" style="rounded=1;whiteSpace=wrap;html=1;align=center;fillColor=#ffe6cc;strokeColor=#d79b00;" vertex="1" parent="1">
                    <mxGeometry x="165" y="430" width="110" height="40" as="geometry"/>
                </mxCell>
                <mxCell id="14" value="&lt;div style=&quot;text-align: left&quot;&gt;&lt;span style=&quot;font-size: 12px&quot;&gt;STATE:&lt;/span&gt;&lt;/div&gt;&lt;font style=&quot;font-size: 12px&quot;&gt;&lt;div style=&quot;text-align: left&quot;&gt;&lt;span&gt;- keystrokes PM?&lt;/span&gt;&lt;/div&gt;&lt;/font&gt;" style="rounded=1;whiteSpace=wrap;html=1;fontSize=18;fillColor=#f5f5f5;strokeColor=default;fontColor=#333333;dashed=1;dashPattern=1 2;" vertex="1" parent="1">
                    <mxGeometry x="155" y="460" width="135" height="50" as="geometry"/>
                </mxCell>
                <mxCell id="28" value="&lt;span style=&quot;font-size: 12px&quot;&gt;S T A T E L E S S&lt;/span&gt;" style="rounded=1;whiteSpace=wrap;html=1;fontSize=18;fillColor=#f5f5f5;strokeColor=default;fontColor=#333333;dashed=1;dashPattern=1 2;" vertex="1" parent="1">
                    <mxGeometry x="130" y="196.5" width="130" height="43" as="geometry"/>
                </mxCell>
                <mxCell id="29" value="&lt;div style=&quot;text-align: left&quot;&gt;&lt;span style=&quot;font-size: 12px&quot;&gt;BEHAVIOUR:&lt;/span&gt;&lt;/div&gt;&lt;span style=&quot;font-size: 12px&quot;&gt;&lt;div style=&quot;text-align: left&quot;&gt;&lt;span&gt;- pushes the user input into a new array? Spread / map?&lt;/span&gt;&lt;/div&gt;&lt;div style=&quot;text-align: left&quot;&gt;&lt;span&gt;&lt;br&gt;&lt;/span&gt;&lt;/div&gt;&lt;div style=&quot;text-align: left&quot;&gt;&lt;span&gt;- Matches it (bool?) with the sample text?&lt;/span&gt;&lt;/div&gt;&lt;/span&gt;" style="rounded=1;whiteSpace=wrap;html=1;fontSize=18;fillColor=none;strokeColor=#666666;fontColor=#333333;dashed=1;dashPattern=1 2;" vertex="1" parent="1">
                    <mxGeometry x="370" y="220" width="230" height="100" as="geometry"/>
                </mxCell>
                <mxCell id="31" value="&lt;div style=&quot;text-align: left&quot;&gt;&lt;span style=&quot;font-size: 12px&quot;&gt;BEHAVIOUR:&lt;/span&gt;&lt;/div&gt;&lt;div style=&quot;text-align: left&quot;&gt;&lt;span style=&quot;font-size: 12px&quot;&gt;- calculates the amount of keystrokes per min.&lt;/span&gt;&lt;/div&gt;&lt;div style=&quot;text-align: left&quot;&gt;&lt;span style=&quot;font-size: 12px&quot;&gt;- displays that number value as text&lt;/span&gt;&lt;/div&gt;" style="rounded=1;whiteSpace=wrap;html=1;fontSize=18;fillColor=none;strokeColor=#666666;fontColor=#333333;dashed=1;dashPattern=1 2;" vertex="1" parent="1">
                    <mxGeometry x="150" y="505" width="230" height="100" as="geometry"/>
                </mxCell>
                <mxCell id="32" value="&lt;div style=&quot;text-align: left&quot;&gt;&lt;span style=&quot;font-size: 12px&quot;&gt;BEHAVIOUR:&lt;/span&gt;&lt;/div&gt;&lt;div style=&quot;text-align: left&quot;&gt;&lt;span style=&quot;font-size: 12px&quot;&gt;- displays text as h1&lt;/span&gt;&lt;/div&gt;" style="rounded=1;whiteSpace=wrap;html=1;fontSize=18;fillColor=none;strokeColor=#666666;fontColor=#333333;dashed=1;dashPattern=1 2;" vertex="1" parent="1">
                    <mxGeometry x="130" y="234" width="140" height="56" as="geometry"/>
                </mxCell>
                <mxCell id="33" value="&lt;div style=&quot;text-align: left&quot;&gt;&lt;span style=&quot;font-size: 12px&quot;&gt;BEHAVIOUR:&lt;/span&gt;&lt;/div&gt;&lt;div style=&quot;text-align: left&quot;&gt;&lt;span style=&quot;font-size: 12px&quot;&gt;- displays an array / string of text&lt;/span&gt;&lt;/div&gt;&lt;div style=&quot;text-align: left&quot;&gt;&lt;span style=&quot;font-size: 12px&quot;&gt;- uses the input text state to determine text colour, word-by-word, as each word is entered with the spacebar&lt;/span&gt;&lt;/div&gt;" style="rounded=1;whiteSpace=wrap;html=1;fontSize=18;fillColor=none;strokeColor=#666666;fontColor=#333333;dashed=1;dashPattern=1 2;" vertex="1" parent="1">
                    <mxGeometry x="461" y="496" width="215" height="96" as="geometry"/>
                </mxCell>
            </root>
        </mxGraphModel>
    </diagram>
</mxfile>